<svg width="25.8008" height="25.459" xmlns="http://www.w3.org/2000/svg" version="1.1">

 <g>
  <title>Layer 1</title>
  <g transform="rotate(180 12.9004 12.7295)" id="svg_1">
   <rect id="svg_2" y="0" x="0" width="25.8008" opacity="0" height="25.459"/>
   <path id="svg_3" fill-opacity="0.85" fill="black" d="m12.7148,25.4395c7.0215,0 12.7247,-5.6934 12.7247,-12.7149c0,-7.02148 -5.7032,-12.7246 -12.7247,-12.7246c-7.02144,0 -12.7148,5.70312 -12.7148,12.7246c0,7.0215 5.69336,12.7149 12.7148,12.7149zm0,-1.8165c-6.02535,0 -10.89839,-4.873 -10.89839,-10.8984c0,-6.02538 4.87304,-10.89843 10.89839,-10.89843c6.0254,0 10.8985,4.87305 10.8985,10.89843c0,6.0254 -4.8731,10.8984 -10.8985,10.8984z"/>
   <path id="svg_4" fill-opacity="0.85" fill="black" d="m4.9707,12.7246c0,0.2051 0.07813,0.459 0.36133,0.7324l5.51757,5.1856c0.2832,0.2539 0.5274,0.3906 0.8399,0.3906c0.4199,0 0.7226,-0.3027 0.7226,-0.7324l0,-2.9004l5.8789,0c0.9766,0 1.5332,-0.5371 1.5332,-1.4844l0,-2.3633c0,-0.9472 -0.5566,-1.4843 -1.5332,-1.4843l-5.8789,0l0,-2.89067c0,-0.41992 -0.3027,-0.76171 -0.7422,-0.76171c-0.3027,0 -0.5078,0.12695 -0.8203,0.42968l-5.51757,5.127c-0.2832,0.2832 -0.36133,0.5273 -0.36133,0.7519z"/>
  </g>
 </g>
</svg>