<svg width="26.4355" height="26.4941" xmlns="http://www.w3.org/2000/svg" version="1.1">
 <g>
  <title>Layer 1</title>
  <ellipse opacity="0.65" fill="#000" stroke="#000" cx="12.09276" cy="14.68454" id="svg_4" rx="5.87498" ry="5.87498"/>
  <g id="svg_1" stroke="null">
   <rect id="svg_2" y="0" x="11.81246" width="14.62304" opacity="0" height="14.65546" stroke="null"/>
   <path id="svg_3" fill-opacity="0.85" fill="black" d="m21.1416,6.27709l-6.39048,6.3797c-0.2701,0.27005 -0.61582,0.36193 -0.89132,0.06477c-0.2863,-0.31331 -0.22688,-0.60499 0.07563,-0.91288l6.36892,-6.38512l-0.52943,-0.52399l-5.67743,5.67745c-2.12296,2.12297 -1.12901,1.82587 -2.28502,3.45725l0.58341,0.6212c1.58277,-1.14521 1.3883,-0.04862 3.54908,-2.19859l5.70446,-5.67204l-0.5078,-0.50775l-0.00002,0zm1.52877,1.25324l0.17828,-0.19449c0.3241,-0.35109 0.34573,-0.75628 -0.01084,-1.102l-0.21064,-0.21064c1.05338,-0.94535 2.23642,-1.09121 2.96023,-1.82047c1.02097,-1.03717 0.69145,-2.4795 -0.02699,-3.20336c-0.71844,-0.72386 -2.14997,-1.03177 -3.20335,-0.02701c-0.74007,0.71306 -0.8751,1.90689 -1.82045,2.96027l-0.2107,-0.21068c-0.34573,-0.35653 -0.75086,-0.33492 -1.10201,-0.01081l-0.19444,0.17827c-0.42134,0.39434 -0.33494,0.75627 0.01621,1.1128l2.5119,2.51191c0.35651,0.35115 0.71844,0.43755 1.11279,0.01621l0.00001,0z" stroke="null"/>
  </g>
 </g>

</svg>